<svg xmlns="http://www.w3.org/2000/svg" viewBox="0 0 512 512">
  <defs>
    <linearGradient id="bg-grad" x1="0%" y1="0%" x2="100%" y2="100%">
      <stop offset="0%" stop-color="#714B67" />
      <stop offset="100%" stop-color="#4a3043" />
    </linearGradient>
    <filter id="shadow" x="-10%" y="-10%" width="120%" height="120%">
      <feDropShadow dx="0" dy="12" stdDeviation="15" flood-color="#000000" flood-opacity="0.2"/>
    </filter>
  </defs>
  
  <rect width="512" height="512" rx="120" fill="url(#bg-grad)" />
  
  <g filter="url(#shadow)">
    <path d="M150 90H362V200H150V90Z" fill="#ffffff" fill-opacity="0.3" />
    
    <path d="M400 200H112C89.9 200 72 217.9 72 240V350C72 372.1 89.9 390 112 390H400C422.1 390 440 372.1 440 350V240C440 217.9 422.1 200 400 200Z" fill="#ffffff" />
    
    <path d="M350 320H162V450H350V320Z" fill="#f8fafc" />
    
    <rect x="195" y="360" width="120" height="18" rx="9" fill="#017E84" />
    <rect x="195" y="400" width="75" height="18" rx="9" fill="#017E84" />
    
    <circle cx="380" cy="250" r="14" fill="#017E84" />
  </g>
</svg>
